<svg xmlns="http://www.w3.org/2000/svg" viewBox="514 250 172 96" width="172" height="96" role="img" aria-label="Email">
<style>@media (prefers-reduced-motion: reduce) { * { animation: none !important; } }</style>
<defs>
  <radialGradient id="fade" cx="0.5" cy="0.45" r="0.6"><stop offset="0.3" stop-color="#fff"/><stop offset="1" stop-color="#fff" stop-opacity="0"/></radialGradient>
  <mask id="gridmask"><rect width="1200" height="346" fill="url(#fade)"/></mask>
</defs>
<g stroke="#d0d7de" stroke-width="1" opacity="0.7" mask="url(#gridmask)"><line x1="0" y1="30" x2="1200" y2="30"/><line x1="0" y1="70" x2="1200" y2="70"/><line x1="0" y1="110" x2="1200" y2="110"/><line x1="0" y1="150" x2="1200" y2="150"/><line x1="0" y1="190" x2="1200" y2="190"/><line x1="0" y1="230" x2="1200" y2="230"/><line x1="0" y1="270" x2="1200" y2="270"/><line x1="0" y1="310" x2="1200" y2="310"/><line x1="0" y1="0" x2="0" y2="346"/><line x1="100" y1="0" x2="100" y2="346"/><line x1="200" y1="0" x2="200" y2="346"/><line x1="300" y1="0" x2="300" y2="346"/><line x1="400" y1="0" x2="400" y2="346"/><line x1="500" y1="0" x2="500" y2="346"/><line x1="600" y1="0" x2="600" y2="346"/><line x1="700" y1="0" x2="700" y2="346"/><line x1="800" y1="0" x2="800" y2="346"/><line x1="900" y1="0" x2="900" y2="346"/><line x1="1000" y1="0" x2="1000" y2="346"/><line x1="1100" y1="0" x2="1100" y2="346"/><line x1="1200" y1="0" x2="1200" y2="346"/></g>
<rect x="522" y="258" width="156" height="38" rx="19" fill="#f6f8fa" stroke="#d0d7de"/><path transform="translate(538 268) scale(0.75)" d="M24 5.457v13.909c0 .904-.732 1.636-1.636 1.636h-3.819V11.73L12 16.64l-6.545-4.91v9.273H1.636A1.636 1.636 0 0 1 0 19.366V5.457c0-2.023 2.309-3.178 3.927-1.964L5.455 4.64 12 9.548l6.545-4.91 1.528-1.145C21.69 2.28 24 3.434 24 5.457z" fill="#EA4335"/><text x="566" y="283" font-family="-apple-system, BlinkMacSystemFont, 'Segoe UI', Helvetica, Arial, sans-serif" font-size="16" font-weight="600" fill="#1f2328">Email</text>
</svg>
